<svg xmlns="http://www.w3.org/2000/svg" width="33.739" height="33.738" viewBox="0 0 33.739 33.738"><g transform="translate(0.5 0.5)"><g transform="translate(0)"><path d="M147.689,495.035a16.369,16.369,0,1,1,16.369-16.369A16.387,16.387,0,0,1,147.689,495.035Z" transform="translate(-131.32 -462.297)" fill="#fff" stroke="rgba(0,0,0,0)" stroke-miterlimit="10" stroke-width="1"/></g><g transform="translate(11.794 6.558)"><path d="M152.993,483.12v9.487a.247.247,0,0,0,.247.247h3.523a.247.247,0,0,0,.247-.247v-9.642h2.554a.247.247,0,0,0,.246-.226l.246-2.905a.247.247,0,0,0-.246-.268h-2.8V477.5a.875.875,0,0,1,.874-.875h1.969a.247.247,0,0,0,.247-.246v-2.905a.247.247,0,0,0-.247-.247h-3.326a3.534,3.534,0,0,0-3.534,3.534v2.8h-1.761a.247.247,0,0,0-.247.247v2.905a.247.247,0,0,0,.247.247h1.761Z" transform="translate(-150.984 -473.231)" fill="#3c5a99" stroke="rgba(0,0,0,0)" stroke-miterlimit="10" stroke-width="1" fill-rule="evenodd"/></g></g></svg>