<svg xmlns="http://www.w3.org/2000/svg" width="33.739" height="33.738" viewBox="0 0 33.739 33.738"><g transform="translate(-7.5 0.5)"><g transform="translate(8 0)"><path d="M147.689,495.035a16.369,16.369,0,1,1,16.369-16.369A16.387,16.387,0,0,1,147.689,495.035Z" transform="translate(-131.32 -462.297)" fill="#fff" stroke="rgba(0,0,0,0)" stroke-miterlimit="10" stroke-width="1"/></g><g transform="translate(-123.806 -528.027)"><g transform="translate(140.051 540.21)"><path d="M162.906,553.5v6.19a.277.277,0,0,1-.277.277h-3.2a.277.277,0,0,1-.277-.277v-5.757c0-1.515-.541-2.55-1.9-2.55a2.051,2.051,0,0,0-1.923,1.371,2.556,2.556,0,0,0-.124.914v6.022a.277.277,0,0,1-.277.277h-3.195a.276.276,0,0,1-.277-.277c.007-1.533.04-8.972.007-10.72a.276.276,0,0,1,.277-.28h3.189a.277.277,0,0,1,.277.277v1.321c-.008.012-.018.025-.025.037h.025v-.037a3.723,3.723,0,0,1,3.38-1.863c2.467,0,4.316,1.612,4.316,5.076Zm-16.991,6.468h3.2a.277.277,0,0,0,.277-.277V548.966a.277.277,0,0,0-.277-.277h-3.2a.277.277,0,0,0-.277.277V559.69A.277.277,0,0,0,145.915,559.967Z" transform="translate(-145.638 -548.424)" fill="#007ab9"/></g><g transform="translate(139.806 535.027)"><circle cx="2.007" cy="2.007" r="2.007" transform="translate(0 0)" fill="#007ab9"/></g></g></g></svg>