<svg xmlns="http://www.w3.org/2000/svg" width="33.738" height="33.738" viewBox="0 0 33.738 33.738"><g transform="translate(0.5 0.5)"><g transform="translate(0)"><path d="M66.153,495.035a16.369,16.369,0,1,1,16.369-16.369A16.387,16.387,0,0,1,66.153,495.035Z" transform="translate(-49.784 -462.297)" fill="#fff" stroke="rgba(0,0,0,0)" stroke-miterlimit="10" stroke-width="1"/></g><g transform="translate(6.769 8.512)"><path d="M80.078,478.372a7.825,7.825,0,0,1-1.927.551c.311-.052.768-.614.951-.841a3.548,3.548,0,0,0,.642-1.169c.017-.033.029-.075,0-.1a.108.108,0,0,0-.1.008,9.84,9.84,0,0,1-2.289.876.152.152,0,0,1-.158-.042,1.848,1.848,0,0,0-.2-.2,4.05,4.05,0,0,0-1.109-.68,3.861,3.861,0,0,0-1.7-.274,4.064,4.064,0,0,0-1.613.456,4.166,4.166,0,0,0-1.3,1.063,4.01,4.01,0,0,0-.777,1.557,4.226,4.226,0,0,0-.041,1.644c.013.092,0,.1-.079.092a12.226,12.226,0,0,1-7.866-4c-.092-.1-.142-.1-.217.008a3.989,3.989,0,0,0,.68,4.713c.154.146.312.292.483.425a4,4,0,0,1-1.518-.425c-.092-.058-.138-.025-.146.079a2.377,2.377,0,0,0,.025.451,4.034,4.034,0,0,0,2.486,3.215,2.34,2.34,0,0,0,.5.154,4.476,4.476,0,0,1-1.489.046c-.109-.021-.15.034-.109.138a4.188,4.188,0,0,0,3.128,2.619c.142.025.284.025.426.058-.008.013-.017.013-.025.025a4.957,4.957,0,0,1-2.136,1.132,7.653,7.653,0,0,1-3.245.415c-.175-.026-.211-.024-.258,0s-.006.071.05.116c.221.146.446.276.675.4a10.721,10.721,0,0,0,2.169.868A11.552,11.552,0,0,0,75.2,489.122a11.768,11.768,0,0,0,3.1-8.586c0-.123.146-.191.233-.256a7.571,7.571,0,0,0,1.519-1.588.461.461,0,0,0,.094-.3v-.017C80.149,478.322,80.156,478.337,80.078,478.372Z" transform="translate(-61.07 -476.489)" fill="#3cf" stroke="rgba(0,0,0,0)" stroke-miterlimit="10" stroke-width="1"/><g transform="translate(5.666 15.647)"><path d="M70.518,502.578Z" transform="translate(-70.518 -502.578)" fill="#3cf" stroke="rgba(0,0,0,0)" stroke-miterlimit="10" stroke-width="1" fill-rule="evenodd"/></g><g transform="translate(5.521 15.647)"><path d="M70.421,502.578c-.025,0-.315,0,0,0Z" transform="translate(-70.275 -502.578)" fill="#3cf" stroke="rgba(0,0,0,0)" stroke-miterlimit="10" stroke-width="1" fill-rule="evenodd"/></g><g transform="translate(6.309 15.65)"><path d="M71.589,502.6c0-.032.338,0,0,0C71.589,502.58,71.63,502.6,71.589,502.6Z" transform="translate(-71.589 -502.582)" fill="#3cf" stroke="rgba(0,0,0,0)" stroke-miterlimit="10" stroke-width="1" fill-rule="evenodd"/></g><g transform="translate(12.978 0.024)"><path d="M82.788,476.528a.069.069,0,0,1-.079,0Z" transform="translate(-82.709 -476.528)" fill="#3cf" stroke="rgba(0,0,0,0)" stroke-miterlimit="10" stroke-width="1" fill-rule="evenodd"/></g></g></g></svg>